<svg width="470" height="466" viewBox="0 0 470 466" fill="none" xmlns="http://www.w3.org/2000/svg">
<g filter="url(#filter0_d_15_88)">
<circle cx="231.6" cy="234.1" r="211.5" stroke="#D9D9D9"/>
<path d="M195.093 20.8315C198.279 22.4843 199.521 26.4069 197.869 29.5928C196.216 32.7787 192.293 34.0215 189.107 32.3687C185.921 30.7159 184.679 26.7934 186.331 23.6075C187.984 20.4216 191.907 19.1787 195.093 20.8315Z" fill="#212121" stroke="#D9D9D9"/>
<path d="M378.093 71.8315C381.279 73.4843 382.521 77.4069 380.869 80.5928C379.216 83.7787 375.293 85.0215 372.107 83.3687C368.921 81.7159 367.679 77.7934 369.331 74.6075C370.984 71.4216 374.907 70.1787 378.093 71.8315Z" fill="#212121" stroke="#D9D9D9"/>
<path d="M446.093 235.832C449.279 237.484 450.521 241.407 448.869 244.593C447.216 247.779 443.293 249.021 440.107 247.369C436.921 245.716 435.679 241.793 437.331 238.607C438.984 235.422 442.907 234.179 446.093 235.832Z" fill="#212121" stroke="#D9D9D9"/>
<path d="M48.0927 130.832C51.2786 132.484 52.5214 136.407 50.8686 139.593C49.2158 142.779 45.2933 144.021 42.1074 142.369C38.9215 140.716 37.6786 136.793 39.3314 133.607C40.9842 130.422 44.9068 129.179 48.0927 130.832Z" fill="#212121" stroke="#D9D9D9"/>
<path d="M42.0927 314.832C45.2786 316.484 46.5214 320.407 44.8686 323.593C43.2158 326.779 39.2933 328.021 36.1074 326.369C32.9215 324.716 31.6786 320.793 33.3314 317.607C34.9842 314.422 38.9068 313.179 42.0927 314.832Z" fill="#212121" stroke="#D9D9D9"/>
<path d="M182.093 432.832C185.279 434.484 186.521 438.407 184.869 441.593C183.216 444.779 179.293 446.021 176.107 444.369C172.921 442.716 171.679 438.793 173.331 435.607C174.984 432.422 178.907 431.179 182.093 432.832Z" fill="#212121" stroke="#D9D9D9"/>
<path d="M362.093 396.832C365.279 398.484 366.521 402.407 364.869 405.593C363.216 408.779 359.293 410.021 356.107 408.369C352.921 406.716 351.679 402.793 353.331 399.607C354.984 396.422 358.907 395.179 362.093 396.832Z" fill="#212121" stroke="#D9D9D9"/>
</g>
<defs>
<filter id="filter0_d_15_88" x="5.72205e-06" y="5.72205e-06" width="469.7" height="465.7" filterUnits="userSpaceOnUse" color-interpolation-filters="sRGB">
<feFlood flood-opacity="0" result="BackgroundImageFix"/>
<feColorMatrix in="SourceAlpha" type="matrix" values="0 0 0 0 0 0 0 0 0 0 0 0 0 0 0 0 0 0 127 0" result="hardAlpha"/>
<feOffset/>
<feGaussianBlur stdDeviation="9.8"/>
<feColorMatrix type="matrix" values="0 0 0 0 0.531062 0 0 0 0 0.742084 0 0 0 0 1 0 0 0 1 0"/>
<feBlend mode="normal" in2="BackgroundImageFix" result="effect1_dropShadow_15_88"/>
<feBlend mode="normal" in="SourceGraphic" in2="effect1_dropShadow_15_88" result="shape"/>
</filter>
</defs>
</svg>
